<?xml version="1.0" encoding="UTF-8"?>
<svg id="_图层_1" data-name="图层 1" xmlns="http://www.w3.org/2000/svg" viewBox="0 0 535.3 213.65">
  <defs>
    <style>
      .cls-1 {
        fill: currentColor;
        stroke-width: 0px;
      }
    </style>
  </defs>
  <g>
    <path class="cls-1" d="M57.84,167.51c-.24.47-.48.93-.72,1.4h24.29c.45-.47.9-.93,1.35-1.4h-24.92Z"/>
    <path class="cls-1" d="M66.71,147.32h34.02c7.52-7.8,15.04-15.6,22.56-23.39-11.06,0-22.12,0-33.18,0,14.89-26.4,29.78-52.79,44.67-79.19-32.07,32.76-64.15,65.52-96.22,98.29,10.12,0,20.25,0,30.37,0-.74,1.43-1.47,2.86-2.21,4.29Z"/>
    <path class="cls-1" d="M63.5,151.89c-.66,1.28-1.32,2.57-1.98,3.85h32.07c1.24-1.28,2.48-2.57,3.71-3.85h-33.81Z"/>
    <path class="cls-1" d="M60.67,160.32c-.45.88-.9,1.75-1.35,2.63h28.18c.84-.88,1.69-1.75,2.53-2.63h-29.36Z"/>
  </g>
  <g>
    <path class="cls-1" d="M224.09,167.64c5.32-7.22,11.26-16.22,16.6-26.61,4.8-9.34,7.97-17.59,10.12-24.41,6.16,0,12.32,0,18.48,0-3.41,6.32-6.82,12.63-10.23,18.95,2.88.48,6.41.85,10.59.86,4.39.01,8.44-.37,11.89-.86,3.15-6.32,6.3-12.63,9.46-18.95,6.15,0,12.29,0,18.44,0-5.5,6.75-12.32,16.17-17.94,27.54-4.62,9.36-7.11,17.36-8.49,23.48-6.23,0-12.46,0-18.69,0,3.73-6.9,7.47-13.8,11.2-20.71-2.88-.46-6.36-.8-10.44-.82-4.43-.02-8.54.34-12.06.82-3.5,6.9-6.99,13.8-10.49,20.71h-18.44Z"/>
    <path class="cls-1" d="M421.11,155.2c-1.4,1.29-3.46,3.4-5.22,6.17-1.61,2.54-2.35,4.66-2.71,6.05-6.27.8-11.72,1.2-16.34,1.2-4.24,0-7.76-.21-11.74-1.51-2.28-.75-5.67-1.91-8.22-4.97-2.87-3.44-3.01-7.27-3.03-8.13-.08-4.29,1.7-8.03,2.89-10.47,1.43-2.93,5.25-10.5,14.45-17.24,6.05-4.43,11.59-6.43,14.81-7.56,8.05-2.83,14.03-2.97,19.08-3.08,3.76-.09,8.9.11,14.44,1.42-1.08,1.4-2.49,3.46-3.55,5.97-1.08,2.54-1.39,4.59-1.47,5.95-2.89-.7-5.28-1.17-7.15-1.42-1.73-.23-3.4-.41-5.38-.37-2.3.04-9.04.17-16.28,4.57-3.87,2.36-6.37,5.02-7.42,6.23-2.37,2.72-3.42,4.99-3.69,5.61-.46,1.05-2.61,5.89-.36,9.58,2.31,3.78,7.8,3.99,10.86,4.1,2.14.08,4.06-.13,6.58-.43,2.43-.29,5.58-.84,9.44-1.66Z"/>
    <g>
      <path class="cls-1" d="M450.15,116.62c-1.74,6.22-4.46,13.85-8.82,22.55-5.75,11.48-12.52,21.17-18.27,28.47,6.13,0,12.27,0,18.4,0l11.93-23.1,15.16-27.92c-6.13,0-12.27,0-18.4,0Z"/>
      <path class="cls-1" d="M470.8,144.51l25.96-23.47h-18.63s-20.34,18.39-20.34,18.39c1.33,9.4.96,18.81,2.29,28.21h14.69c-1.32-7.71-2.65-15.42-3.97-23.13Z"/>
    </g>
    <g>
      <path class="cls-1" d="M178.4,104.18c4.74-7.41,9.6-15.91,13.99-25.3,1.95-4.17,3.63-8.15,5.08-11.9,1.43-3.63,2.86-7.25,4.29-10.88,5.51,0,11.02,0,16.52,0-2.86,4.39-5.89,9.35-8.9,14.79-2.08,3.77-5.53,10.05-9,18.3-1.85,4.41-3.74,9.44-5.42,14.98-5.53,0-11.05,0-16.58,0Z"/>
      <path class="cls-1" d="M252.66,92.45c-.74,1.68-1.73,3.65-3.06,5.84-1.33,2.18-2.7,4.09-3.95,5.68-5.58.75-10.43,1.13-14.55,1.13-3.78,0-6.91-.2-10.46-1.43-2.03-.71-5.05-1.8-7.34-4.68-2.57-3.25-2.75-6.87-2.73-7.66.07-2.94.92-6.22,2.53-9.86,1.06-2.4,3.01-6.65,7.56-11.47,1.21-1.27,5-5.13,10.89-8.49,3.29-1.87,5.9-2.83,7.51-3.42,7.27-2.64,12.8-2.81,16.97-2.9,3.36-.07,7.93.12,12.87,1.34-.94,1.2-2.25,3.08-3.2,5.4-1.06,2.59-1.23,4.62-1.22,5.83-2.58-.66-4.7-1.1-6.38-1.34-1.67-.23-3.27-.35-4.79-.35-2.09,0-5.44.11-9.78,1.9-1.32.55-5,2.1-8.7,5.53-3.57,3.3-5.19,6.51-5.84,8.03-.68,1.58-1.85,4.32-1.14,6.89.72,2.62,2.98,3.56,5.15,4.46,4.07,1.7,8.46,1.37,11.25,1.14,3.4-.29,6.35-.99,8.4-1.57Z"/>
      <path class="cls-1" d="M301.03,93.4c-1.83,3.48-3.67,7.07-5.51,10.78-5.96-.05-12.51-.07-19.64-.07l-16.2.04-5.24.04c7.51-14.99,15.02-29.99,22.53-44.98l1.34-3.1c13.68,0,27.35,0,41.03,0l-.59,1.16c-.15.28-.66,1.3-1.54,3.05l-1.91,3.83c-.41.82-.8,1.65-1.18,2.49-8.27-.04-16.54-.07-24.81-.11l-4.03,8.1c7.05-.05,14.09-.09,21.14-.14-1.58,3.01-3.39,6.59-5.45,10.74-7.07.06-14.14.12-21.21.18l-4.23,8.56"/>
      <g>
        <path class="cls-1" d="M186.3,70.06c.21-1.69.53-4.18-.35-6.67-.69-1.95-1.92-3.35-3.28-4.36l-42.35,45.13c.47,0,.96,0,1.42.02,3.67.19,6.88-.1,9.2-.42,3.66-.5,6.82-.96,10.94-2.78.99-.44,3.49-1.6,6.45-3.65,6.04-4.19,9.4-8.93,11.35-11.73.69-1,2.64-3.88,4.27-7.66.75-1.73,1.92-4.5,2.35-7.87Z"/>
        <path class="cls-1" d="M175.77,56.26c-1.6-.26-3.76-.3-7.46-.38-6.7-.13-9.75.29-17.24.32-3.26.01-5.85-.05-7.38-.11-1.54,5.96-3.96,13.29-7.88,21.67-4.96,10.6-10.76,19.58-15.74,26.41,1.36-.03,2.72-.06,4.09-.08,2.28-.03,4.52-.03,6.75-.03l44.85-47.8Z"/>
      </g>
    </g>
    <g>
      <path class="cls-1" d="M313.88,167.4l50-50.12s-.05-.02-.07-.02c-3.57-1.07-7.56-1.61-11.96-1.61-6.88,0-13.62,1.16-20.21,3.48-6.59,2.32-12.26,5.54-17,9.66-4.75,4.12-8.41,8.91-10.99,14.37-1.76,3.71-2.69,7.09-2.81,10.13-.12,3.04.81,5.8,2.79,8.28,1.98,2.48,4.84,4.27,8.58,5.38.55.16,1.1.31,1.67.45Z"/>
      <path class="cls-1" d="M375.08,130.53c-.06-3.06-1.07-5.77-3.01-8.13-.4-.48-.83-.93-1.3-1.35l-47.43,47.55c.48.01.97.02,1.47.02,4.71,0,9.51-.57,14.39-1.7,4.89-1.13,9.48-2.92,13.77-5.36,4.29-2.44,8.1-5.41,11.42-8.91,3.32-3.5,5.97-7.34,7.95-11.53,1.89-3.99,2.8-7.51,2.73-10.58Z"/>
    </g>
    <path class="cls-1" d="M176.61,165.34c1.53-5.38,2.62-9.68,3.28-12.91,2.78,1.26,5.35,2.14,7.7,2.63,2.35.49,4.47.74,6.38.74,2.51,0,4.62-.32,6.33-.97,1.71-.64,2.79-1.6,3.24-2.86.15-.43.22-.84.22-1.23,0-.39-.12-.83-.35-1.33-.23-.49-.62-1.03-1.16-1.61l-5.94-6.21c-1.4-1.41-2.37-2.44-2.89-3.07-1.07-1.29-1.84-2.49-2.3-3.6-.46-1.11-.68-2.24-.66-3.39.02-1.15.25-2.37.71-3.65.54-1.54,1.39-3.05,2.53-4.53,1.14-1.48,2.56-2.86,4.25-4.15,1.69-1.29,3.73-2.4,6.1-3.33,2.37-.93,4.79-1.57,7.24-1.91,2.45-.34,4.92-.51,7.39-.51,4.86,0,9.99.49,15.36,1.48-.53,1.74-1,3.34-1.39,4.79-.4,1.45-1.03,3.99-1.88,7.63-2.32-.93-4.51-1.58-6.56-1.95-2.06-.37-3.88-.55-5.46-.55-2.24,0-4.24.37-5.98,1.1-1.74.73-2.8,1.64-3.19,2.73-.18.51-.24,1-.18,1.48.06.48.29,1.04.7,1.69.4.64.99,1.35,1.75,2.12.76.77,1.99,1.91,3.67,3.43l2.34,2.16c.69.66,1.4,1.45,2.13,2.39.73.93,1.33,1.86,1.78,2.76s.76,1.74.91,2.5c.15.76.19,1.52.12,2.29-.07.77-.26,1.6-.58,2.48-.8,2.27-2.19,4.44-4.16,6.49-1.97,2.06-4.32,3.75-7.06,5.07-2.74,1.33-5.57,2.25-8.48,2.78s-5.87.8-8.89.8c-4.66,0-10.34-.59-17.03-1.78Z"/>
  </g>
</svg>