<?xml version="1.0" encoding="UTF-8"?>
<svg id="_图层_1" data-name="图层 1" xmlns="http://www.w3.org/2000/svg" viewBox="0 0 136.96 193.3">
  <defs>
    <style>
      .cls-1 {
        fill: currentColor;
        stroke-width: 0px;
      }
    </style>
  </defs>
  <polygon class="cls-1" points="34.81 164.8 37.9 161.6 27.73 161.6 26.09 164.8 34.81 164.8"/>
  <polygon class="cls-1" points="43.51 155.78 46.77 152.4 32.46 152.4 30.72 155.78 43.51 155.78"/>
  <polygon class="cls-1" points="17.4 182.86 20.16 179.99 18.28 179.99 16.81 182.86 17.4 182.86"/>
  <polygon class="cls-1" points="109.16 87.7 76.57 87.7 76.69 87.49 120.14 10.45 26.37 106.23 56.18 106.23 53.91 110.65 87.03 110.65 109.16 87.7"/>
  <polygon class="cls-1" points="26.1 173.83 29.03 170.8 23.01 170.8 21.45 173.83 26.1 173.83"/>
  <polygon class="cls-1" points="78.33 119.68 82.25 115.61 51.36 115.61 49.27 119.68 78.33 119.68"/>
  <polygon class="cls-1" points="69.62 128.7 73.38 124.81 46.64 124.81 44.64 128.7 69.62 128.7"/>
  <polygon class="cls-1" points="60.92 137.73 64.51 134.01 41.91 134.01 40 137.73 60.92 137.73"/>
  <polygon class="cls-1" points="52.21 146.75 55.64 143.2 37.18 143.2 35.36 146.75 52.21 146.75"/>
</svg>