<?xml version="1.0" encoding="UTF-8"?>
<svg id="_图层_1" data-name="图层 1" xmlns="http://www.w3.org/2000/svg" viewBox="0 0 1453.3 213.65">
  <defs>
    <style>
      .cls-1 {
        fill: currentColor;
        stroke-width: 0px;
      }
    </style>
  </defs>
  <g>
    <path class="cls-1"
      d="M200.31,164.78c11.44-17.87,23.15-38.34,33.74-61,4.7-10.06,8.75-19.64,12.25-28.69,3.45-8.74,6.9-17.49,10.35-26.23h39.84c-6.9,10.59-14.2,22.53-21.45,35.67-5.02,9.09-13.33,24.22-21.7,44.13-4.47,10.62-9.03,22.77-13.06,36.12h-39.96Z" />
    <path class="cls-1"
      d="M379.31,136.5c-1.79,4.04-4.17,8.8-7.38,14.07-3.2,5.26-6.51,9.86-9.52,13.7-13.45,1.81-25.14,2.72-35.07,2.72-9.11,0-16.67-.47-25.2-3.44-4.9-1.7-12.18-4.34-17.69-11.29-6.21-7.84-6.63-16.55-6.58-18.47.18-7.08,2.21-15,6.09-23.78,2.56-5.78,7.25-16.04,18.22-27.64,2.91-3.07,12.05-12.37,26.26-20.46,7.92-4.51,14.22-6.83,18.11-8.25,17.54-6.37,30.85-6.78,40.9-7,8.09-.18,19.12.3,31.02,3.23-2.27,2.9-5.42,7.43-7.72,13.03-2.57,6.24-2.97,11.13-2.94,14.06-6.21-1.58-11.34-2.66-15.37-3.23-4.04-.57-7.88-.85-11.55-.85-5.04,0-13.12.27-23.57,4.59-3.18,1.31-12.05,5.07-20.97,13.33-8.6,7.96-12.5,15.7-14.07,19.36-1.63,3.8-4.45,10.41-2.74,16.6,1.74,6.3,7.19,8.58,12.42,10.76,9.8,4.09,20.4,3.3,27.13,2.74,8.19-.69,15.31-2.38,20.24-3.78Z" />
    <path class="cls-1"
      d="M495.93,138.8c-4.42,8.38-8.84,17.04-13.28,25.98-14.37-.11-30.15-.17-47.35-.17l-39.04.08-12.63.08c18.11-36.15,36.21-72.29,54.32-108.44l3.22-7.47h98.92l-1.41,2.79c-.36.68-1.59,3.13-3.7,7.36l-4.62,9.22c-.99,1.98-1.94,3.98-2.84,6.01-19.94-.08-39.88-.17-59.81-.25l-9.72,19.53c16.99-.11,33.97-.23,50.96-.34-3.8,7.25-8.18,15.88-13.15,25.9-17.04.14-34.09.28-51.13.42l-10.19,20.63" />
    <g>
      <path class="cls-1"
        d="M219.34,82.54c.51-4.08,1.27-10.09-.85-16.09-1.66-4.7-4.62-8.07-7.91-10.51l-102.09,108.8c1.13.02,2.3.02,3.43.05,8.84.45,16.59-.25,22.17-1.02,8.82-1.21,16.43-2.32,26.37-6.71,2.39-1.05,8.42-3.85,15.55-8.79,14.56-10.1,22.67-21.52,27.37-28.28,1.67-2.4,6.37-9.34,10.3-18.47,1.8-4.16,4.63-10.84,5.65-18.98Z" />
      <path class="cls-1"
        d="M193.97,49.27c-3.87-.62-9.08-.73-17.99-.91-16.16-.32-23.5.69-41.55.76-7.86.03-14.1-.13-17.79-.25-3.71,14.36-9.55,32.04-19,52.25-11.95,25.55-25.94,47.2-37.94,63.66,3.28-.08,6.56-.14,9.86-.19,5.5-.08,10.89-.08,16.27-.08l108.13-115.24Z" />
    </g>
  </g>
  <g>
    <path class="cls-1"
      d="M736.27,170.96c12.83-17.42,27.15-39.1,40.02-64.16,11.57-22.52,19.23-42.41,24.39-58.84h44.55c-8.22,15.23-16.44,30.46-24.66,45.68,6.93,1.16,15.45,2.04,25.54,2.08,10.57.03,20.34-.88,28.65-2.08,7.6-15.23,15.2-30.46,22.8-45.68h44.44c-13.27,16.26-29.71,38.97-43.25,66.38-11.15,22.56-17.13,41.85-20.47,56.61h-45.05c9-16.64,18-33.28,27-49.92-6.94-1.1-15.34-1.93-25.17-1.98-10.68-.06-20.58.81-29.07,1.98-8.43,16.64-16.86,33.28-25.29,49.92h-44.45Z" />
    <path class="cls-1"
      d="M1211.23,140.96c-3.38,3.12-8.34,8.2-12.57,14.87-3.88,6.11-5.66,11.23-6.54,14.59-15.11,1.92-28.25,2.88-39.4,2.88-10.23,0-18.72-.5-28.29-3.65-5.5-1.81-13.66-4.6-19.82-11.98-6.91-8.29-7.27-17.54-7.31-19.6-.2-10.35,4.09-19.36,6.96-25.23,3.44-7.05,12.65-25.32,34.83-41.56,14.57-10.67,27.95-15.5,35.69-18.22,19.41-6.83,33.82-7.16,46-7.44,9.06-.21,21.45.28,34.82,3.42-2.6,3.37-6,8.35-8.55,14.39-2.59,6.13-3.35,11.06-3.55,14.35-6.97-1.68-12.72-2.82-17.25-3.42-4.17-.55-8.19-.99-12.97-.9-5.56.1-21.8.4-39.24,11.02-9.34,5.69-15.35,12.11-17.88,15.02-5.7,6.57-8.23,12.04-8.89,13.51-1.12,2.52-6.29,14.21-.87,23.1,5.56,9.12,18.8,9.61,26.19,9.88,5.16.19,9.79-.32,15.87-1.04,5.87-.69,13.45-2.03,22.75-4.01Z" />
    <g>
      <path class="cls-1"
        d="M1281.25,47.97c-4.19,14.98-10.75,33.38-21.26,54.36-13.86,27.67-30.17,51.03-44.04,68.63h44.36l28.75-55.69,36.55-67.31h-44.36Z" />
      <path class="cls-1"
        d="M1331.01,115.2l62.58-56.57h-44.91l-49.04,44.33c3.21,22.67,2.31,45.34,5.52,68h35.42c-3.19-18.59-6.38-37.17-9.58-55.76Z" />
    </g>
    <g>
      <path class="cls-1"
        d="M952.75,170.37l120.52-120.81c-.06-.02-.11-.04-.17-.06-8.6-2.58-18.21-3.87-28.83-3.87-16.59,0-32.83,2.79-48.72,8.38-15.89,5.59-29.55,13.35-40.99,23.29-11.44,9.94-20.27,21.49-26.5,34.64-4.23,8.95-6.49,17.09-6.77,24.42-.28,7.33,1.96,13.98,6.74,19.96,4.77,5.98,11.67,10.3,20.69,12.98,1.31.39,2.66.74,4.02,1.07Z" />
      <path class="cls-1"
        d="M1100.28,81.49c-.16-7.39-2.57-13.92-7.25-19.6-.95-1.16-2.01-2.23-3.13-3.26l-114.35,114.62c1.17.03,2.34.05,3.54.05,11.35,0,22.91-1.37,34.69-4.1,11.78-2.73,22.85-7.04,33.2-12.93,10.35-5.89,19.53-13.05,27.54-21.49,8.01-8.44,14.4-17.71,19.18-27.8,4.55-9.61,6.74-18.11,6.59-25.5Z" />
    </g>
    <path class="cls-1"
      d="M621.82,165.41c3.69-12.96,6.32-23.34,7.9-31.13,6.71,3.04,12.89,5.16,18.55,6.34,5.66,1.19,10.79,1.78,15.38,1.78,6.05,0,11.13-.78,15.26-2.33,4.13-1.55,6.73-3.85,7.81-6.89.37-1.03.54-2.02.53-2.97-.01-.94-.3-2.01-.85-3.19-.55-1.19-1.49-2.48-2.8-3.88l-14.31-14.97c-3.38-3.41-5.71-5.87-6.98-7.39-2.59-3.1-4.43-5.99-5.53-8.67-1.1-2.68-1.64-5.4-1.59-8.17.04-2.77.61-5.71,1.71-8.81,1.31-3.71,3.35-7.35,6.1-10.91,2.75-3.56,6.17-6.89,10.25-10,4.08-3.1,8.98-5.78,14.71-8.03,5.72-2.25,11.54-3.79,17.45-4.61,5.91-.82,11.85-1.23,17.82-1.23,11.72,0,24.07,1.19,37.04,3.56-1.28,4.2-2.4,8.05-3.36,11.55-.96,3.5-2.47,9.63-4.53,18.39-5.59-2.25-10.86-3.82-15.82-4.7-4.96-.88-9.35-1.32-13.17-1.32-5.41,0-10.22.88-14.41,2.65-4.2,1.77-6.76,3.96-7.69,6.57-.43,1.22-.57,2.4-.43,3.56.14,1.16.71,2.51,1.68,4.06.98,1.55,2.39,3.26,4.23,5.11,1.84,1.86,4.79,4.61,8.84,8.26l5.65,5.2c1.66,1.58,3.37,3.5,5.15,5.75,1.77,2.25,3.2,4.47,4.3,6.66s1.83,4.2,2.19,6.02c.36,1.83.45,3.67.28,5.52-.17,1.86-.63,3.85-1.39,5.98-1.94,5.48-5.28,10.7-10.02,15.66-4.74,4.96-10.42,9.04-17.03,12.23-6.61,3.19-13.42,5.43-20.43,6.71-7.01,1.28-14.16,1.92-21.44,1.92-11.24,0-24.92-1.43-41.05-4.29Z" />
  </g>
</svg>