<?xml version="1.0" encoding="UTF-8"?>
<svg id="_图层_1" data-name="图层 1" xmlns="http://www.w3.org/2000/svg" viewBox="0 0 792.17 792.17">
  <defs>
    <style>
      .cls-1 {
        fill: currentColor;
      }

      .cls-1, .cls-2 {
        stroke-width: 0px;
      }

      .cls-2 {
        fill: #36ffa1;
      }
    </style>
  </defs>
  <g>
    <path class="cls-2" d="M158.19,662.12c-1.62,3.16-3.24,6.31-4.87,9.47h27.68c3.04-3.16,6.09-6.31,9.13-9.47h-31.94Z"/>
    <path class="cls-2" d="M194.73,590.99c-2.01,3.91-4.01,7.81-6.02,11.72h58.71c3.77-3.91,7.53-7.81,11.3-11.72h-64Z"/>
    <path class="cls-2" d="M176.46,626.55c-1.81,3.53-3.63,7.06-5.44,10.6h43.2c3.41-3.53,6.81-7.06,10.22-10.6h-47.97Z"/>
    <path class="cls-2" d="M185.6,608.77c-1.91,3.72-3.82,7.44-5.73,11.16h50.96c3.59-3.72,7.17-7.44,10.76-11.16h-55.98Z"/>
    <path class="cls-2" d="M167.32,644.34l-5.15,10.03h35.44c3.23-3.34,6.45-6.69,9.68-10.03h-39.96Z"/>
    <path class="cls-2" d="M130.78,715.47c-1.33,2.59-2.67,5.19-4,7.78h4.4l7.51-7.78h-7.91Z"/>
    <path class="cls-2" d="M149.05,679.9c-1.53,2.97-3.05,5.94-4.58,8.91h19.92c2.86-2.97,5.73-5.94,8.59-8.91h-23.93Z"/>
    <path class="cls-2" d="M139.91,697.69c-1.43,2.78-2.86,5.56-4.29,8.35h12.16c2.68-2.78,5.37-5.56,8.05-8.35h-15.92Z"/>
    <path class="cls-2" d="M268.34,447.72h128.55c28.58-29.64,57.16-59.27,85.73-88.91h-125.56L526.08,59.16c-121.38,123.98-242.75,247.95-364.13,371.93h114.93c-2.85,5.54-5.7,11.09-8.54,16.63Z"/>
    <path class="cls-2" d="M249.55,484.28l-7.76,15.1h105.27c4.85-5.03,9.71-10.06,14.56-15.1h-112.07Z"/>
    <path class="cls-2" d="M258.69,466.5c-2.68,5.22-5.36,10.44-8.04,15.66h113.03c5.03-5.22,10.07-10.44,15.1-15.66h-120.09Z"/>
    <path class="cls-2" d="M240.41,502.07c-2.49,4.84-4.98,9.69-7.47,14.53h97.51c4.67-4.84,9.34-9.69,14.01-14.53h-104.06Z"/>
    <path class="cls-2" d="M203.87,573.2l-6.31,12.28h66.47l11.85-12.28h-72.01Z"/>
    <path class="cls-2" d="M267.82,448.72c-2.78,5.41-5.56,10.81-8.33,16.22h120.79c5.21-5.41,10.43-10.81,15.64-16.22h-128.1Z"/>
    <path class="cls-2" d="M231.28,519.85c-2.39,4.66-4.78,9.31-7.18,13.97h89.75c4.49-4.66,8.98-9.31,13.47-13.97h-96.05Z"/>
    <path class="cls-2" d="M213,555.42c-2.2,4.28-4.4,8.56-6.6,12.85h74.23c4.13-4.28,8.26-8.56,12.39-12.85h-80.02Z"/>
    <path class="cls-2" d="M222.14,537.63c-2.3,4.47-4.59,8.94-6.89,13.41h81.99c4.31-4.47,8.62-8.94,12.93-13.41h-88.03Z"/>
  </g>
  <g>
    <path class="cls-1" d="M230.92,505.28c10.42-14.15,22.06-31.77,32.51-52.12,9.4-18.29,15.62-34.45,19.82-47.8h36.19c-6.68,12.37-13.36,24.74-20.03,37.11,5.63.94,12.56,1.66,20.75,1.69,8.59.03,16.53-.72,23.28-1.69,6.17-12.37,12.35-24.74,18.52-37.11h36.11c-10.78,13.21-24.14,31.66-35.13,53.93-9.06,18.33-13.92,34-16.63,45.99h-36.6c7.31-13.52,14.62-27.04,21.94-40.55-5.64-.89-12.46-1.57-20.45-1.61-8.68-.05-16.72.66-23.61,1.61-6.85,13.52-13.7,27.04-20.54,40.55h-36.11Z"/>
    <path class="cls-1" d="M616.79,480.9c-2.74,2.53-6.78,6.66-10.21,12.08-3.15,4.96-4.6,9.12-5.32,11.86-12.28,1.56-22.95,2.34-32.01,2.34-8.31,0-15.21-.41-22.98-2.97-4.47-1.47-11.1-3.74-16.1-9.74-5.61-6.73-5.9-14.25-5.94-15.92-.16-8.41,3.32-15.73,5.65-20.5,2.8-5.73,10.28-20.57,28.3-33.76,11.84-8.67,22.71-12.59,29-14.8,15.77-5.55,27.48-5.82,37.37-6.04,7.36-.17,17.43.22,28.29,2.78-2.11,2.73-4.87,6.78-6.95,11.69-2.11,4.98-2.72,8.99-2.88,11.66-5.66-1.37-10.33-2.29-14.01-2.78-3.39-.45-6.66-.8-10.53-.73-4.51.08-17.71.32-31.88,8.96-7.59,4.62-12.47,9.84-14.53,12.2-4.63,5.34-6.69,9.78-7.22,10.98-.91,2.05-5.11,11.54-.71,18.76,4.52,7.41,15.27,7.81,21.28,8.03,4.19.16,7.95-.26,12.9-.84,4.77-.56,10.93-1.65,18.49-3.26Z"/>
    <g>
      <path class="cls-1" d="M673.67,405.36c-3.41,12.17-8.73,27.12-17.27,44.16-11.26,22.48-24.51,41.45-35.78,55.76h36.04l23.35-45.24,29.69-54.68h-36.04Z"/>
      <path class="cls-1" d="M714.1,459.98l50.84-45.96h-36.49l-39.84,36.01c2.61,18.42,1.88,36.83,4.48,55.25h28.78c-2.59-15.1-5.19-30.2-7.78-45.3Z"/>
    </g>
    <g>
      <path class="cls-1" d="M141.45,380.98c9.29-14.52,18.81-31.15,27.41-49.55,3.82-8.17,7.11-15.95,9.95-23.31,2.8-7.1,5.61-14.21,8.41-21.31h32.36c-5.6,8.6-11.54,18.3-17.43,28.98-4.08,7.39-10.83,19.68-17.63,35.85-3.63,8.63-7.33,18.5-10.61,29.35h-32.47Z"/>
      <path class="cls-1" d="M286.88,358.01c-1.45,3.28-3.39,7.15-6,11.43-2.6,4.27-5.29,8.01-7.73,11.13-10.93,1.47-20.42,2.21-28.49,2.21-7.4,0-13.54-.39-20.48-2.79-3.98-1.38-9.9-3.52-14.38-9.17-5.04-6.37-5.39-13.45-5.35-15.01.14-5.75,1.79-12.19,4.95-19.32,2.08-4.69,5.89-13.03,14.8-22.46,2.36-2.5,9.79-10.05,21.33-16.63,6.44-3.67,11.55-5.55,14.71-6.7,14.25-5.17,25.07-5.51,33.23-5.68,6.58-.14,15.53.24,25.2,2.62-1.85,2.36-4.4,6.04-6.27,10.58-2.08,5.07-2.41,9.04-2.39,11.42-5.05-1.29-9.21-2.16-12.49-2.62-3.28-.46-6.4-.69-9.38-.69-4.09,0-10.66.22-19.15,3.73-2.58,1.07-9.79,4.12-17.04,10.83-6.99,6.47-10.15,12.75-11.43,15.73-1.32,3.09-3.62,8.45-2.23,13.49,1.42,5.12,5.84,6.97,10.09,8.74,7.96,3.33,16.58,2.68,22.04,2.22,6.66-.56,12.44-1.93,16.45-3.07Z"/>
      <path class="cls-1" d="M381.63,359.87c-3.59,6.81-7.19,13.84-10.79,21.11-11.67-.09-24.5-.14-38.47-.14l-31.72.07-10.26.07c14.71-29.37,29.42-58.73,44.13-88.1l2.62-6.07h80.36l-1.15,2.27c-.29.55-1.3,2.54-3.01,5.98l-3.75,7.49c-.81,1.61-1.58,3.23-2.31,4.88-16.2-.07-32.4-.14-48.59-.21l-7.9,15.87c13.8-.09,27.6-.18,41.4-.28-3.09,5.89-6.65,12.9-10.68,21.04-13.85.11-27.69.23-41.54.34l-8.28,16.76"/>
      <g>
        <path class="cls-1" d="M156.92,314.17c.42-3.31,1.03-8.2-.69-13.07-1.35-3.82-3.76-6.55-6.43-8.54l-82.94,88.39c.92.02,1.87.02,2.79.04,7.18.36,13.47-.21,18.01-.83,7.17-.98,13.35-1.88,21.43-5.45,1.94-.86,6.84-3.13,12.63-7.14,11.83-8.2,18.41-17.48,22.23-22.97,1.36-1.95,5.17-7.59,8.37-15.01,1.46-3.38,3.76-8.81,4.59-15.42Z"/>
        <path class="cls-1" d="M136.31,287.14c-3.14-.5-7.37-.59-14.61-.74-13.13-.26-19.09.56-33.76.62-6.39.03-11.46-.11-14.45-.21-3.01,11.66-7.76,26.03-15.44,42.45-9.71,20.76-21.08,38.35-30.82,51.72,2.66-.06,5.33-.12,8.01-.16,4.47-.07,8.85-.07,13.22-.07l87.85-93.62Z"/>
      </g>
    </g>
    <g>
      <path class="cls-1" d="M406.79,504.8l97.92-98.15s-.09-.03-.14-.05c-6.99-2.1-14.8-3.15-23.42-3.15-13.48,0-26.67,2.27-39.58,6.81-12.91,4.54-24.01,10.85-33.3,18.92-9.29,8.08-16.47,17.46-21.53,28.15-3.44,7.27-5.27,13.88-5.5,19.84-.23,5.95,1.6,11.36,5.47,16.21,3.88,4.86,9.48,8.37,16.81,10.54,1.07.32,2.16.6,3.27.87Z"/>
      <path class="cls-1" d="M526.65,432.59c-.13-6-2.09-11.31-5.89-15.92-.78-.94-1.63-1.81-2.54-2.65l-92.9,93.12c.95.02,1.9.04,2.87.04,9.22,0,18.62-1.11,28.19-3.33,9.57-2.22,18.56-5.72,26.97-10.51,8.41-4.78,15.87-10.6,22.37-17.46,6.51-6.86,11.7-14.38,15.58-22.58,3.69-7.81,5.48-14.71,5.35-20.72Z"/>
    </g>
    <path class="cls-1" d="M137.94,500.76c2.99-10.53,5.13-18.96,6.42-25.29,5.45,2.47,10.47,4.19,15.07,5.15,4.6.96,8.76,1.45,12.49,1.45,4.91,0,9.05-.63,12.4-1.89,3.35-1.26,5.47-3.13,6.34-5.6.3-.84.44-1.64.43-2.41-.01-.77-.24-1.63-.69-2.6-.45-.96-1.21-2.01-2.27-3.15l-11.62-12.16c-2.75-2.77-4.64-4.77-5.67-6.01-2.1-2.52-3.6-4.87-4.5-7.05-.9-2.17-1.33-4.39-1.29-6.64.03-2.25.5-4.64,1.39-7.16,1.07-3.02,2.72-5.97,4.95-8.86,2.24-2.89,5.01-5.6,8.33-8.12,3.32-2.52,7.3-4.7,11.95-6.53,4.65-1.83,9.38-3.08,14.18-3.75,4.8-.67,9.63-1,14.47-1,9.53,0,19.56.96,30.09,2.89-1.04,3.41-1.95,6.54-2.73,9.38-.78,2.84-2.01,7.82-3.68,14.94-4.54-1.83-8.82-3.1-12.85-3.82-4.03-.72-7.6-1.08-10.7-1.08-4.4,0-8.3.72-11.71,2.15-3.41,1.43-5.49,3.21-6.24,5.34-.35.99-.47,1.95-.35,2.89.12.94.57,2.04,1.37,3.3.79,1.26,1.94,2.65,3.43,4.15,1.5,1.51,3.89,3.75,7.18,6.71l4.59,4.23c1.35,1.29,2.74,2.84,4.18,4.67,1.44,1.83,2.6,3.63,3.49,5.41.89,1.78,1.48,3.41,1.78,4.89.29,1.48.37,2.98.23,4.49-.14,1.51-.52,3.13-1.13,4.86-1.58,4.45-4.29,8.69-8.14,12.72-3.85,4.03-8.46,7.34-13.83,9.94-5.37,2.6-10.9,4.41-16.6,5.45-5.69,1.04-11.5,1.56-17.42,1.56-9.13,0-20.25-1.16-33.35-3.49Z"/>
  </g>
</svg>