<?xml version="1.0" encoding="UTF-8"?>
<svg id="_图层_1" data-name="图层 1" xmlns="http://www.w3.org/2000/svg" viewBox="0 0 162.86 42.78">
  <defs>
    <style>
      .cls-1 {
        fill: currentColor;
        fill-rule: evenodd;
        stroke-width: 0px;
      }
    </style>
  </defs>
  <polygon class="cls-1" points="53.04 9.39 46.43 9.39 46.43 33.39 57.67 33.39 57.67 28.86 53.04 28.86 53.04 9.39" />
  <polygon class="cls-1" points="65.42 9.39 58.8 9.39 58.8 33.39 70.05 33.39 70.05 28.86 65.42 28.86 65.42 9.39" />
  <path class="cls-1"
    d="M25.55,9.67h0s0,0,0,0c-.17-.19-.42-.27-.68-.27h-8.92c-.26,0-.51.09-.68.27-.62.66-1.61,1.79-2.44,2.86-.13.17-.19.39-.19.6v16.55c0,.21.06.43.19.6.83,1.07,1.83,2.2,2.44,2.86.17.19.42.27.68.27h8.92c.26,0,.51-.09.68-.27.62-.66,1.61-1.79,2.44-2.86.13-.17.19-.39.19-.6v-6.65h-6.04v6.38h-3.47V13.39h3.47v6.38h6.04v-6.64c0-.21-.06-.43-.19-.6-.83-1.07-1.83-2.2-2.44-2.86Z" />
  <path class="cls-1"
    d="M42.46,9.66h0c-.17-.19-.42-.27-.68-.27h-8.92c-.26,0-.51.09-.68.27-.62.66-1.61,1.79-2.44,2.86-.13.17-.19.39-.19.6v20.27h6.04v-7.07h3.47v7.07h6.04V13.12c0-.21-.06-.43-.19-.6-.83-1.07-1.83-2.2-2.44-2.86ZM39.06,22.33h-3.47v-8.94h3.47v8.94Z" />
  <path class="cls-1"
    d="M111.85,29.39h-3.47V9.39h-6.04v20.27c0,.21.06.43.19.6.83,1.07,1.83,2.2,2.44,2.86.17.19.42.27.68.27h8.92c.26,0,.51-.09.68-.27.62-.66,1.61-1.79,2.44-2.86.13-.17.19-.39.19-.6V9.39h-6.04v20Z" />
  <path class="cls-1"
    d="M98.33,9.67h0c-.17-.19-.42-.27-.68-.27h-12.23v24h12.23c.26,0,.51-.09.68-.27.62-.66,1.61-1.79,2.44-2.86.13-.17.19-.39.19-.6V13.12c0-.21-.06-.43-.19-.6-.83-1.07-1.83-2.2-2.44-2.86ZM94.92,23.53v5.86h-3.46V13.39h3.46v10.14Z" />
  <path class="cls-1"
    d="M148.23,19.85v-10.46h-5.65v8.92l-1.46,1.74h-.61l-1.47-1.74v-8.92h-5.63v10.46c0,.2.07.4.2.56l3.95,4.79v8.19h6.5v-8.19l3.96-4.79c.13-.16.2-.36.2-.56Z" />
  <path class="cls-1"
    d="M74.58,14.3c-.08-.08-.19-.12-.3-.12h-4.51c-.11,0-.23.04-.3.12-.28.29-.5.58-.87,1.06-.06.07-.09.17-.09.27v7.49c0,.09.03.19.09.27.37.48.6.76.87,1.06.08.08.19.12.3.12h4.51c.11,0,.23-.04.3-.12.28-.29.5-.58.87-1.06.06-.07.09-.17.09-.27v-7.49c0-.09-.03-.19-.09-.27-.37-.48-.6-.76-.87-1.06ZM72.84,20.43v1.89h-1.64v-5.9h1.64v4.01Z" />
  <polygon class="cls-1"
    points="76.69 16.59 76.69 24.56 79.39 24.56 79.39 21.13 82.28 21.13 82.28 18.72 79.39 18.72 79.39 16.59 82.65 16.59 82.65 14.18 76.69 14.18 76.69 16.59" />
  <polygon class="cls-1"
    points="122.7 9.39 119.18 9.39 119.18 14.31 122.69 14.31 122.69 33.39 128.73 33.39 128.73 14.31 132.23 14.31 132.23 9.39 128.74 9.39 122.7 9.39" />
  <path class="cls-1"
    d="M148.82,31.55s-.06-.05-.1-.05v-.06h.12c.1,0,.18-.03.23-.08.06-.06.08-.13.08-.22v-.37c0-.11-.03-.2-.1-.26-.06-.06-.15-.09-.27-.09h-1.43v1.89h.35v-.76h.71l.35.76h.42l-.29-.61c-.03-.07-.06-.11-.09-.14ZM147.71,31.27v-.57h1.04s.03,0,.04.01c0,0,.01.02.01.04v.47s0,.03-.01.04c0,0-.02.01-.04.01h0s-1.04,0-1.04,0Z" />
  <path class="cls-1"
    d="M148.23,29.39c-1.1,0-2,.9-2,2s.9,2,2,2,2-.9,2-2-.9-2-2-2ZM148.23,33.08c-.93,0-1.69-.76-1.69-1.69s.76-1.69,1.69-1.69,1.69.76,1.69,1.69-.76,1.69-1.69,1.69Z" />
</svg>