<?xml version="1.0" encoding="UTF-8"?>
<svg id="_图层_1" data-name="图层 1" xmlns="http://www.w3.org/2000/svg" viewBox="0 0 463.7 116.22">
  <defs>
    <style>
      .cls-1 {
        fill: currentColor;
        stroke-width: 0px;
      }
    </style>
  </defs>
  <path class="cls-1" d="M434.6,82.02c0,2.79-2.01,4.69-4.58,4.69s-4.58-2.01-4.58-4.69,2.01-4.69,4.58-4.69,4.58,2.01,4.58,4.69M424.33,82.02c0,3.24,2.57,5.59,5.7,5.59s5.7-2.35,5.7-5.59-2.57-5.59-5.7-5.59-5.7,2.35-5.7,5.59M428.91,79.67h1.34c1.12,0,1.45.34,1.45,1.01s-.45,1.01-1.56,1.01h-1.12v-2.01h-.11ZM428.91,82.46h1.12l1.68,2.79h1.12l-1.9-2.9c1.01-.11,1.68-.67,1.68-1.79,0-1.23-.78-1.9-2.35-1.9h-2.46v6.48h1.01l.11-2.68ZM422.88,28.39l-14.75,26.81-14.3-26.81h-13.41c2.46,4.58,20,37.42,20,37.42v21.67h14.41v-21.67s18.21-32.96,20.78-37.54l-12.74.11ZM363.33,56.32c10.5-1.01,12.74-6.14,12.74-13.52,0-6.48-2.79-9.83-5.81-11.73-2.57-1.56-5.59-2.68-11.84-2.68h-27.7v59.21h28.04c8.6,0,12.18-1.68,13.85-2.79,2.9-1.9,6.59-6.14,6.59-12.85.11-7.93-2.68-15.97-15.86-15.64M356.18,79h-12.06v-42.12h13.18c4.47,0,7.26,3.57,7.26,8.38,0,7.48-3.57,7.6-13.85,8.04v6.81c9.16,0,16.53-.56,16.53,8.94-.11,4.69-3.13,9.94-11.06,9.94M298.76,28.39h-13.29v59.21h37.98v-9.83h-24.69V28.39ZM262.23,66.93c0,10.5-3.69,12.85-13.96,12.85s-13.96-2.35-13.96-12.85v-17.76c0-10.28,3.69-12.4,13.96-12.4s13.96,2.23,13.96,12.4v17.76ZM268.15,31.74c-4.02-2.79-10.95-4.36-19.88-4.36s-15.08,1.23-19.88,4.36c-5.03,3.24-7.48,8.71-7.48,17.32v18.66c0,8.6,2.46,14.41,7.37,17.32,4.02,2.79,10.5,4.13,20,4.13s15.97-1.34,19.88-4.02c4.92-3.13,7.48-9.05,7.48-17.43v-18.66c0-8.15-2.57-13.96-7.48-17.32M199.12,65.48c0,10.39-5.59,12.96-10.17,12.96h-16.42v-41.33h16.42c4.69,0,10.17,2.57,10.17,12.29v16.09ZM188.84,28.39h-29.6v59.21h31.73c15.64,0,21.45-6.37,21.45-23.57v-12.96c-.11-16.31-6.7-22.68-23.57-22.68M27.97,96.09h109.37V20.13H27.97v75.96ZM53.33,86.26h-12.4V29.96h12.51c12.96,0,23.79,12.85,23.79,28.04-.11,15.64-10.95,28.26-23.91,28.26M124.49,86.26h-12.51c-12.96,0-23.79-12.62-23.79-28.26s10.84-28.04,23.79-28.04h12.51v56.3Z"/>
</svg>