<?xml version="1.0" encoding="UTF-8"?>
<svg id="_图层_1" data-name="图层 1" xmlns="http://www.w3.org/2000/svg" viewBox="0 0 232.43 232.43">
  <defs>
    <style>
      .cls-1 {
        fill: currentColor;
        stroke-width: 0px;
      }
    </style>
  </defs>
  <g>
    <path class="cls-1"
      d="M58.86,59.85h11.97v24.14h25.34c5.79,0,10.17-1.4,13.37-4.19,2.99-2.59,4.59-6.38,4.59-11.17,0-2.99-.8-5.59-2.19-7.98-1.4-2.19-3.79-3.79-6.78-4.99,4.59-2.59,6.98-6.58,6.98-11.77,0-4.19-1.4-7.58-4.39-10.17-2.99-2.39-7.18-3.79-12.57-3.79h-24.34v22.94h-6.98l-4.99,6.98ZM79.01,37.31h15.56c2.99,0,5.39.6,6.98,1.99s2.39,3.19,2.39,5.59c0,2.79-.8,4.79-2.39,6.18-1.6,1.2-3.79,1.99-6.98,1.99h-15.56v-15.76ZM79.01,59.85h16.56c3.39,0,5.99.8,7.58,2.19,1.8,1.4,2.59,3.59,2.59,6.38s-.8,4.79-2.59,6.18c-1.8,1.4-4.19,2.19-7.58,2.19h-16.56v-16.96Z" />
    <polygon class="cls-1"
      points="25.74 83.99 41.5 62.25 57.27 83.99 66.44 83.99 46.09 55.86 64.85 29.93 55.67 29.93 41.5 49.48 27.34 29.93 18.16 29.93 36.92 55.86 16.57 83.99 25.74 83.99" />
    <path class="cls-1"
      d="M169.58,56.86c0-3.99-.6-7.98-1.8-11.37s-2.99-6.38-5.39-8.98c-2.39-2.59-5.19-4.59-8.38-5.79-3.19-1.4-6.78-1.99-10.77-1.99s-7.58.8-10.77,1.99c-3.19,1.2-5.99,3.19-8.38,5.79-2.39,2.59-4.19,5.59-5.39,8.98-1.2,3.39-1.8,7.18-1.8,11.37s.6,7.98,1.8,11.37c1.2,3.39,2.99,6.38,5.39,8.98,2.39,2.59,5.19,4.59,8.38,5.79,3.19,1.4,6.78,1.99,10.77,1.99s7.58-.8,10.77-1.99c3.19-1.2,5.98-3.19,8.38-5.79s4.19-5.59,5.39-8.98,1.8-7.18,1.8-11.37ZM156.42,72.02c-3.19,3.59-7.58,5.59-12.97,5.59s-9.78-1.8-12.97-5.59c-3.39-3.79-4.99-8.78-4.99-15.16s1.6-11.37,4.99-15.16c3.19-3.79,7.58-5.59,12.97-5.59s9.78,1.8,12.97,5.59c3.19,3.59,4.79,8.78,4.79,15.16s-1.6,11.57-4.79,15.16Z" />
    <polygon class="cls-1"
      points="195.72 55.86 214.47 29.93 205.29 29.93 191.13 49.48 176.96 29.93 167.79 29.93 186.54 55.86 165.99 83.99 175.17 83.99 190.93 62.25 206.69 83.99 215.87 83.99 195.72 55.86" />
  </g>
  <g>
    <g>
      <path class="cls-1"
        d="M80.11,135.94h22.74l4.81,13.37h8.02l-19.53-51.09h-8.83l-20.06,51.09h8.02l4.81-13.37ZM91.88,105.72l8.83,23.54h-17.65l8.83-23.54Z" />
      <polygon class="cls-1"
        points="217.33 105.18 217.33 98.23 180.68 98.23 180.68 149.05 217.06 149.05 217.06 142.1 188.44 142.1 188.44 126.31 213.85 126.31 213.85 119.89 188.44 119.89 188.44 105.18 217.33 105.18" />
      <path class="cls-1"
        d="M165.44,108.66v40.66h7.49v-51.09h-10.43l-10.16,26.48c-2.14,5.35-3.74,10.43-5.35,14.98-1.34-4.01-2.94-8.56-5.08-14.18l-10.43-27.28h-10.7v50.82h7.49v-40.39c1.07,3.21,2.41,6.69,3.74,10.43l11.77,29.96h6.42l11.5-29.96c1.6-4.01,2.67-7.49,3.74-10.43Z" />
      <path class="cls-1"
        d="M41.32,129.26h14.98c-.27,4.28-1.87,7.76-4.81,10.43-2.94,2.67-6.95,4.01-11.23,4.01-5.08,0-9.36-1.87-12.3-5.35s-4.55-8.29-4.55-14.44,1.6-10.97,4.55-14.44,6.95-5.35,12.04-5.35c3.74,0,6.95,1.07,9.63,2.94,2.68,1.87,4.28,4.55,5.08,8.02h8.02c-.8-5.35-3.21-9.9-7.22-13.11s-9.36-4.81-15.51-4.81c-3.74,0-7.22.54-10.16,1.87-3.21,1.07-5.62,2.94-8.02,5.08-2.14,2.41-4.01,5.35-5.08,8.56s-1.6,6.95-1.6,10.97c0,3.74.53,7.49,1.6,10.7s2.94,6.15,5.08,8.56c2.14,2.41,4.81,4.28,7.76,5.62,2.94,1.34,6.15,1.87,9.9,1.87s6.95-.53,9.63-1.87c2.67-1.34,5.08-3.21,6.95-5.88v6.69h7.22v-26.75h-21.93v6.69Z" />
    </g>
    <g>
      <path class="cls-1"
        d="M199.97,187.57c-2.46-2.46-6.84-4.11-12.86-5.47l-4.65-.82c-4.38-.82-7.39-1.92-9.03-3.28-1.64-1.37-2.46-3.01-2.46-5.47s1.09-4.11,2.74-5.47c1.92-1.37,4.65-1.92,7.94-1.92,4.38,0,7.66.82,9.58,2.46,1.92,1.64,3.01,4.11,3.28,7.39h7.39c-.27-4.93-1.92-9.03-5.47-12.04-3.56-3.01-8.76-4.38-15.6-4.38-5.47,0-10.13,1.37-13.41,3.83-3.28,2.74-4.93,6.02-4.93,10.4s1.37,7.66,4.11,10.13c2.74,2.46,6.84,4.11,12.32,5.2l4.38.82c4.38.82,7.66,1.92,9.31,3.28,1.64,1.09,2.46,3.01,2.46,5.2,0,2.74-1.09,4.93-3.01,6.3s-4.93,2.19-8.76,2.19c-4.65,0-7.94-1.09-10.4-3.01-2.19-1.92-3.56-4.93-3.56-8.76h-7.94c0,6.02,1.92,10.67,5.75,13.68,3.83,3.01,9.31,4.65,16.15,4.65,6.3,0,11.5-1.37,15.05-4.11,3.56-2.74,5.47-6.57,5.47-11.5,0-4.11-1.37-7.39-3.83-9.31Z" />
      <path class="cls-1"
        d="M153.44,187.57c-2.46-2.46-6.84-4.11-12.86-5.47l-4.65-.82c-4.38-.82-7.39-1.92-9.03-3.28s-2.46-3.01-2.46-5.47,1.09-4.11,2.74-5.47c1.92-1.37,4.65-1.92,7.94-1.92,4.38,0,7.66.82,9.58,2.46,1.92,1.64,3.01,4.11,3.28,7.39h7.39c-.27-4.93-1.92-9.03-5.47-12.04-3.56-3.01-8.76-4.38-15.6-4.38-5.47,0-10.13,1.37-13.41,3.83-3.28,2.74-4.93,6.02-4.93,10.4s1.37,7.66,4.11,10.13c2.74,2.46,6.84,4.11,12.32,5.2l4.38.82c4.38.82,7.66,1.92,9.31,3.28,1.64,1.09,2.46,3.01,2.46,5.2,0,2.74-1.09,4.93-3.01,6.3s-4.93,2.19-8.76,2.19c-4.65,0-7.94-1.09-10.4-3.01-2.19-1.92-3.56-4.93-3.56-8.76h-7.94c0,6.02,1.92,10.67,5.75,13.68,3.83,3.01,9.31,4.65,16.15,4.65,6.3,0,11.5-1.37,15.05-4.11,3.56-2.74,5.47-6.57,5.47-11.5,0-4.11-1.37-7.39-3.83-9.31Z" />
      <path class="cls-1"
        d="M68.59,175.8c.27-5.2-1.37-9.31-4.65-12.32-3.01-3.01-7.66-4.38-13.14-4.38h-22.17v52.28h7.94v-19.16h14.23c5.75,0,10.13-1.37,13.14-4.38,3.01-3.01,4.65-7.12,4.65-12.04ZM58.19,182.91c-1.64,1.64-4.11,2.46-7.39,2.46h-14.23v-19.16h14.23c3.28,0,5.75.82,7.39,2.46,1.64,1.64,2.46,4.11,2.46,7.12s-.82,5.47-2.46,7.12Z" />
      <path class="cls-1"
        d="M83.65,159.1l-20.53,52.28h8.21l4.93-13.68h23.26l4.93,13.68h8.21l-19.98-52.28h-9.03ZM78.99,190.85l9.03-24.09,9.03,24.09h-18.06Z" />
    </g>
  </g>
</svg>