<?xml version="1.0" encoding="UTF-8"?>
<svg id="_图层_1" data-name="图层 1" xmlns="http://www.w3.org/2000/svg" viewBox="0 0 302.87 130.3">
  <defs>
    <style>
      .cls-1 {
        fill: currentColor;
        stroke-width: 0px;
      }
    </style>
  </defs>
  <g>
    <path class="cls-1" d="M46.97,38.37v21.29h22.44v-21.29h9.63v53.08h-9.63v-23.41h-22.44v23.41h-9.63v-53.08h9.63Z"/>
    <path class="cls-1" d="M88.58,39.05c4.24-.67,9.63-1.06,15.41-1.06,9.92,0,16.76,2.02,21.67,6.16,5.11,4.14,8.28,10.5,8.28,19.55s-3.18,16.57-8.28,21.1c-5.3,4.82-13.68,7.22-23.99,7.22-5.68,0-9.92-.29-13.1-.67v-52.31ZM98.21,83.94c1.35.19,3.37.19,5.39.19,12.62.1,20.04-6.84,20.04-20.33.1-11.75-6.65-18.4-18.78-18.4-3.08,0-5.3.19-6.65.58v37.95Z"/>
    <path class="cls-1" d="M140.79,39.05c3.66-.67,9.05-1.06,14.64-1.06,7.61,0,12.81,1.25,16.38,4.24,2.89,2.41,4.53,6.16,4.53,10.6,0,6.84-4.62,11.46-9.63,13.29v.19c3.76,1.44,6.07,5.11,7.42,10.21,1.64,6.65,3.08,12.72,4.14,14.83h-10.02c-.77-1.54-2.02-5.88-3.56-12.52-1.54-6.94-4.05-9.15-9.54-9.25h-4.91v21.77h-9.63v-52.31h.19ZM150.42,62.45h5.78c6.55,0,10.6-3.47,10.6-8.77,0-5.78-4.05-8.48-10.4-8.48-3.08,0-5.01.19-5.97.48v16.76Z"/>
    <path class="cls-1" d="M210.24,48.97h-.19l-9.34,4.72-1.64-7.32,12.43-6.16h8.09v51.15h-9.34v-42.38Z"/>
    <path class="cls-1" d="M265.54,65.54c0,16.47-6.45,26.78-18.69,26.78s-18.11-10.69-18.21-26.3c0-15.89,6.74-26.59,18.69-26.59,12.43-.1,18.21,10.98,18.21,26.1ZM238.47,65.92c-.1,12.43,3.37,18.88,8.77,18.88,5.68,0,8.67-6.94,8.67-19.17s-2.79-18.88-8.67-18.88c-5.2,0-8.86,6.36-8.77,19.17Z"/>
  </g>
  <path class="cls-1" d="M261.93,112.44H35.27c-11.94,0-17.63-6.36-20.23-11.66-2.79-5.68-2.79-11.17-2.79-11.46v-48.93c0-11.94,6.36-17.63,11.66-20.23,5.59-2.79,11.17-2.79,11.46-2.79h226.56c22.83,0,23.12,22.83,23.12,23.12v48.84c0,11.94-6.36,17.63-11.66,20.23-5.68,2.89-11.17,2.89-11.46,2.89ZM35.37,22.27c-.87,0-18.11.39-18.11,18.11v48.93c0,.77.29,18.11,18.11,18.11h226.56c.77,0,18.11-.29,18.11-18.11v-48.93c0-.77-.29-18.11-18.11-18.11H35.37Z"/>
</svg>