<?xml version="1.0" encoding="UTF-8"?>
<svg id="_图层_1" data-name="图层 1" xmlns="http://www.w3.org/2000/svg" viewBox="0 0 263.94 114.83">
  <defs>
    <style>
      .cls-1 {
        fill: currentColor;
        stroke-width: 0px;
      }
    </style>
  </defs>
  <path id="path2" class="cls-1"
    d="M27.04,43.51c-2.91,0-5.26.69-6.92,1.94-1.66,1.25-2.49,3.04-2.49,5.26s.69,3.88,2.08,5.12c1.38,1.25,3.46,2.21,6.23,2.77l2.22.55c2.21.55,3.87,1.11,4.7,1.66.83.69,1.25,1.52,1.25,2.63,0,1.38-.55,2.49-1.52,3.32-1.11.69-2.63,1.11-4.57,1.11-2.35,0-4.15-.55-5.39-1.52-1.25-.97-1.8-2.49-1.8-4.43h-3.88c0,3.04.97,5.4,3.05,7.06,1.94,1.66,4.71,2.35,8.16,2.35,3.18,0,5.81-.69,7.61-2.08,1.8-1.38,2.77-3.46,2.77-5.81,0-2.08-.69-3.74-2.08-4.98-1.38-1.25-3.6-2.21-6.64-2.77l-2.35-.55c-2.21-.42-3.74-1.11-4.57-1.66-.83-.55-1.25-1.52-1.25-2.77s.42-2.08,1.38-2.77c.97-.69,2.21-.97,4.01-.97,2.21,0,3.87.42,4.84,1.25.97.83,1.52,2.07,1.66,3.73h4.15c0-2.63-.97-4.7-2.77-6.23-1.8-1.52-4.43-2.21-7.89-2.21ZM170.39,43.51c-2.91,0-5.26.69-6.92,1.94-1.66,1.25-2.49,3.04-2.49,5.26s.69,3.88,2.08,5.12c1.38,1.25,3.46,2.21,6.23,2.77l2.21.55c2.21.55,3.87,1.11,4.71,1.66.83.69,1.24,1.52,1.24,2.63,0,1.38-.55,2.49-1.52,3.32-1.11.69-2.63,1.11-4.56,1.11-2.35,0-4.15-.55-5.4-1.52-1.25-.97-1.8-2.49-1.8-4.43h-4.01c0,3.04.97,5.4,3.05,7.06,1.94,1.66,4.71,2.35,8.16,2.35,3.18,0,5.81-.69,7.61-2.08,1.8-1.38,2.77-3.46,2.77-5.81.28-2.08-.42-3.74-1.8-4.98s-3.6-2.21-6.64-2.77l-2.35-.55c-2.21-.42-3.74-1.11-4.57-1.66-.83-.55-1.24-1.52-1.24-2.77s.42-2.08,1.38-2.77c.97-.69,2.21-.97,4.01-.97,2.21,0,3.87.42,4.84,1.25.97.83,1.52,2.07,1.66,3.73h4.01c0-2.63-.97-4.7-2.77-6.23-1.8-1.52-4.43-2.21-7.89-2.21ZM49.45,44.2v26.7h18.96v-3.73h-14.94v-8.16h13.28v-3.46h-13.28v-7.75h14.94v-3.6h-18.96ZM80.03,44.2v26.7h4.01v-10.93h7.75c1.52,0,2.63.41,3.32,1.11.69.69,1.11,1.94,1.11,3.6l.14,2.91c0,1.52.28,2.63.83,3.46h4.15c-.42-.97-.69-2.08-.83-3.46l-.28-4.15c0-1.52-.42-2.63-.97-3.6-.55-.83-1.52-1.52-2.77-1.8,1.38-.42,2.49-1.25,3.18-2.35.83-1.11,1.25-2.49,1.25-4.15,0-2.35-.83-4.15-2.49-5.39s-3.87-1.94-6.78-1.94h-11.62ZM112.96,44.2v26.7h4.01v-26.7h-4.01ZM130.4,44.2v26.7h19.1v-3.73h-15.08v-8.16h13.28v-3.46h-13.28v-7.75h15.08v-3.6h-19.1ZM84.32,47.66h7.19c1.66,0,3.05.41,3.88,1.11s1.38,1.8,1.38,3.18-.42,2.63-1.25,3.32c-.83.83-2.08,1.25-3.6,1.25h-7.61v-8.86ZM217.87,63.89l11.38-15.63,17.75-24.36h-9.38l-19.44,27.08-.04-.05-11.38,15.63-17.75,24.36h9.38l19.44-27.08.04.05ZM221.96,69.48l15.66,21.44h9.38l-20.34-27.92-4.71,6.48ZM198.39,23.91h-9.38l20.34,27.92,4.71-6.48-15.66-21.44Z" />
</svg>