<?xml version="1.0" encoding="UTF-8"?>
<svg id="_图层_1" data-name="图层 1" xmlns="http://www.w3.org/2000/svg" viewBox="0 0 209.22 76.17">
  <defs>
    <style>
      .cls-1 {
        fill: currentColor;
        stroke-width: 0px;
      }
    </style>
  </defs>
  <path class="cls-1" d="M190.45,9.87c-4.2,1.38-6.69,5.42-5.99,9.8.43,2.82,2.06,5.04,4.55,6.31,3.39,1.68,6.99,1.25,9.7-1.19,2.03-1.84,2.9-3.76,2.9-6.5,0-2.57-.76-4.5-2.46-6.2-2.14-2.14-5.99-3.11-8.69-2.22ZM195.24,13.83c1.62.84,2.52,2.19,2.65,4.04.16,2.41-.87,4.14-3.01,5.04-3.63,1.52-7.75-1.98-6.72-5.74.43-1.68,1.16-2.63,2.52-3.3,1.46-.7,3.17-.73,4.55-.03Z"/>
  <path class="cls-1" d="M8.91,18.29v8.29l1.71-.08,1.68-.08.14-5.23.14-5.23,3.93,5.28,3.93,5.31,1.62-.05,1.62-.08V10.17l-1.68-.08-1.71-.08v10.7l-3.98-5.34-4.01-5.34h-3.39v8.26Z"/>
  <path class="cls-1" d="M36,18.29v8.26h3.52V10.03h-3.52v8.26Z"/>
  <path class="cls-1" d="M51.84,10.39c-.08.19-.11,3.87-.08,8.18l.08,7.85,1.71.08,1.68.08v-10.97l4.06,5.47,4.06,5.47h3.25V10.03h-3.52l-.05,5.2-.08,5.2-3.9-5.2-3.87-5.2h-1.6c-1.06,0-1.65.11-1.73.35Z"/>
  <path class="cls-1" d="M78.16,10.22c-.11.08-.19.89-.19,1.76v1.57h5.42v13h3.52v-13h5.15v-3.52h-6.85c-3.79,0-6.96.08-7.04.19Z"/>
  <path class="cls-1" d="M103.97,18.29v8.26h12.73v-3.25h-9.48v-3.79h8.67v-2.98h-8.67v-3.25l4.69-.05,4.66-.08.08-1.57.08-1.54h-12.76v8.26Z"/>
  <path class="cls-1" d="M130.11,10.39c-.08.19-.11,3.87-.08,8.18l.08,7.85,1.71.08,1.68.08v-10.97l4.06,5.47,4.06,5.47h3.25V10.03h-3.52l-.05,5.2-.08,5.2-3.9-5.2-3.87-5.2h-1.6c-1.06,0-1.65.11-1.73.35Z"/>
  <path class="cls-1" d="M158.68,18.27v8.29h3.6c4.17,0,6.15-.41,7.94-1.65,5.28-3.63,4.47-11.4-1.46-14.14-1.11-.51-1.87-.6-5.66-.68l-4.41-.11v8.29ZM167.54,14.07c2.27,1.06,3.25,3.95,2.11,6.36-.87,1.79-2.63,2.6-5.71,2.6h-2v-9.48h2.25c1.6,0,2.55.16,3.36.51Z"/>
  <path class="cls-1" d="M150.5,33.89c-3.76.49-7.12,2.25-9.89,5.2-6.04,6.5-5.85,16.38.46,22.67,2.33,2.36,4.44,3.57,7.47,4.33,4.98,1.27,10.02.27,14.14-2.84,1.6-1.19,3.68-3.52,3.52-3.93-.05-.11-1.16-1.11-2.49-2.27l-2.38-2.09-.73.95c-3.49,4.58-10.56,5.06-14.65.97-.6-.6-1.41-1.71-1.81-2.49-.68-1.3-.76-1.71-.76-4.14s.08-2.9.68-4.06c2-4.14,6.96-6.39,11.27-5.15,2,.57,3.9,1.76,5.09,3.2l.92,1.11,1.19-.97c.65-.51,1.79-1.52,2.52-2.17l1.35-1.22-1.06-1.3c-3.52-4.28-9.21-6.5-14.84-5.8Z"/>
  <path class="cls-1" d="M16.55,34.95c-6.45,1.71-9.78,6.01-8.34,10.89,1.03,3.6,4.44,5.36,13.51,6.99,6.09,1.08,7.88,1.98,7.88,3.9,0,1.33-.79,2.3-2.49,3.09-1.46.68-1.79.73-5.47.73-4.36,0-6.07-.35-9.29-1.81-1-.46-1.87-.79-1.92-.73-.32.41-2.9,5.2-2.82,5.25.27.3,4.6,1.87,6.39,2.36,2.98.79,9.34.97,12.59.38,6.07-1.14,9.07-3.93,9.34-8.61.22-3.87-.87-5.88-4.2-7.61-2.38-1.25-4.44-1.84-9.7-2.9-4.58-.89-5.88-1.33-6.82-2.22-.84-.79-.84-2.19.03-3.06,1.95-1.95,8.94-2.03,14.35-.14.89.3,1.71.46,1.81.35.19-.22,2.14-4.79,2.14-5.06,0-.24-4.14-1.46-6.47-1.9-3.14-.6-8.02-.54-10.53.11Z"/>
  <path class="cls-1" d="M39.63,35.14c.08.27,1.98,7.01,4.22,14.98,2.25,7.96,4.14,14.71,4.22,14.95.14.43.57.49,3.9.49h3.76l.3-1.03c2.68-9.7,5.39-18.8,5.52-18.47.08.22,1.35,4.66,2.82,9.89l2.65,9.48,3.79.08,3.79.08,4.31-15.11c2.36-8.31,4.33-15.27,4.41-15.46.08-.24-.68-.32-3.3-.32h-3.39l-.38,1.27c-.22.73-1.52,5.61-2.9,10.83-1.41,5.25-2.6,9.56-2.71,9.56-.08,0-1.35-4.12-2.82-9.15-1.46-5.01-2.9-9.89-3.2-10.83l-.51-1.71-2.76.08-2.76.08-3.17,10.83c-1.73,5.96-3.17,10.89-3.2,10.97s-1.25-4.31-2.68-9.75c-1.46-5.44-2.82-10.4-2.98-11.05l-.32-1.14h-3.39c-3.11,0-3.39.03-3.25.46Z"/>
  <path class="cls-1" d="M90.97,50.12v15.44h7.04l-.05-15.38-.08-15.36-3.44-.08-3.47-.08v15.46Z"/>
  <path class="cls-1" d="M105.33,38.06v3.39h9.75v24.1h6.77v-24.1l4.82-.05,4.79-.08v-6.5l-13.05-.08-13.08-.05v3.39Z"/>
  <path class="cls-1" d="M173.3,50.12v15.44h6.5v-12.19h14.35v12.19h6.5l-.05-15.38-.08-15.36-3.17-.08-3.2-.08v12.21h-14.35v-12.19h-6.5v15.44Z"/>
</svg>