<?xml version="1.0" encoding="UTF-8"?>
<svg id="_图层_1" data-name="图层 1" xmlns="http://www.w3.org/2000/svg" viewBox="0 0 68.88 144.52">
  <defs>
    <style>
      .cls-1 {
        fill: currentColor;
        stroke-width: 0px;
      }
    </style>
  </defs>
  <path class="cls-1" d="M7.41,7.05c-.11.08-.19,29.44-.19,65.24,0,59.07.03,65.05.43,65.21.73.27,21.75.16,24.35-.11,11-1.25,20.69-7.94,25.97-17.87.68-1.27,1.57-3.41,2.03-4.74,1.71-5.09,1.65-3.74,1.65-42.65,0-31.06-.05-35.69-.43-37.67-2.68-14.11-13.43-24.75-27.57-27.19-1.9-.32-4.82-.41-14.25-.41-6.5,0-11.92.08-12,.19ZM36.33,66.03c4.22,1.11,7.69,4.33,9.1,8.45.89,2.55.87,6.28-.03,8.61-1.65,4.28-4.9,7.29-9.07,8.4-6.77,1.76-13.97-2.33-15.95-9.05-.6-2.06-.57-5.52.11-7.64,2.03-6.64,9.07-10.53,15.84-8.77Z"/>
</svg>