<?xml version="1.0" encoding="UTF-8"?>
<svg id="_图层_1" data-name="图层 1" xmlns="http://www.w3.org/2000/svg" viewBox="0 0 68.88 144.52">
  <defs>
    <style>
      .cls-1 {
        fill: currentColor;
        stroke-width: 0px;
      }
    </style>
  </defs>
  <path class="cls-1" d="M30.77,7.29C17.74,9.62,7.26,19.26,3.95,31.94c-1.19,4.58-1.27,7.26-1.14,42.76.08,32.61.11,33.37.65,35.88,3.01,13.57,12.65,23.24,26.35,26.43,1.79.41,4.06.49,18.71.57,15.17.11,16.74.08,17.14-.32s.43-5.63.43-64.89c0-43.93-.08-64.62-.27-65-.27-.49-.73-.51-16.6-.49-12.89.03-16.76.11-18.47.41ZM55.27,72.29v54.87l-11.02-.14c-10.16-.11-11.24-.16-13.27-.68-8.72-2.25-15.19-8.96-17.01-17.71-.6-2.74-.6-70.12-.03-72.8,1.62-7.61,6.91-13.92,14.03-16.76,3.57-1.44,5.23-1.6,16.82-1.62l10.48-.03v54.87Z"/>
  <path class="cls-1" d="M33.09,33.97c-1.71.32-4.31,1.62-5.69,2.84-2.84,2.46-4.25,5.96-4.04,10.07.11,2.14.24,2.71,1.11,4.44,1.27,2.63,3.2,4.55,5.82,5.85,1.81.89,2.27,1,4.63,1.08,2.14.08,2.9,0,4.33-.49,5.88-1.98,9.42-7.69,8.42-13.54-1.16-6.96-7.77-11.62-14.6-10.26Z"/>
</svg>