<?xml version="1.0" encoding="UTF-8"?>
<svg id="_图层_1" data-name="图层 1" xmlns="http://www.w3.org/2000/svg" viewBox="0 0 329.48 140.48">
  <defs>
    <style>
      .cls-1 {
        fill: currentColor;
        stroke-width: 0px;
      }
    </style>
  </defs>
  <path class="cls-1" d="M199.75,89.46h-10.37v13.96h10.37c2.39,0,4.19-.6,5.39-1.8s1.8-2.99,1.8-5.19-.6-3.99-1.8-5.19-2.99-1.8-5.39-1.8Z"/>
  <polygon class="cls-1" points="220.3 107.42 233.47 107.42 226.88 89.86 220.3 107.42"/>
  <polygon class="cls-1" points="68.88 107.42 82.05 107.42 75.46 89.86 68.88 107.42"/>
  <path class="cls-1" d="M204.94,58.34c3.19-3.59,4.79-8.78,4.79-15.16s-1.6-11.57-4.79-15.16c-3.19-3.79-7.58-5.59-12.97-5.59s-9.78,1.8-12.97,5.59c-3.39,3.79-4.99,8.98-4.99,15.16s1.6,11.37,4.99,15.16c3.19,3.79,7.58,5.59,12.97,5.59s9.78-1.99,12.97-5.59Z"/>
  <path class="cls-1" d="M151.67,60.93c1.8-1.4,2.59-3.39,2.59-6.18s-.8-4.99-2.59-6.38c-1.6-1.4-4.19-2.19-7.58-2.19h-16.56v16.96h16.56c3.39,0,5.79-.8,7.58-2.19Z"/>
  <path class="cls-1" d="M310.86,7.13H18.62c-5.19,0-9.39,4.2-9.39,9.39v107.43c0,5.19,4.2,9.39,9.39,9.39h292.24c5.19,0,9.39-4.2,9.39-9.39V16.53c0-5.19-4.2-9.39-9.39-9.39ZM225.49,16.24l14.16,19.55,14.16-19.55h9.18l-18.75,25.93,20.15,28.13h-9.18l-15.76-21.75-15.76,21.75h-9.18l20.55-28.13-18.75-25.93h9.18ZM119.35,16.24h24.34c5.39,0,9.58,1.4,12.57,3.79,2.99,2.59,4.39,5.98,4.39,10.17,0,5.19-2.39,9.18-6.98,11.77,2.99,1.2,5.39,2.79,6.78,4.99,1.4,2.39,2.19,4.99,2.19,7.98,0,4.79-1.6,8.58-4.59,11.17-3.19,2.79-7.58,4.19-13.37,4.19h-25.34v-24.14h-11.97l4.99-6.98h6.98v-22.94ZM66.69,16.24h9.18l14.16,19.55,14.16-19.55h9.18l-18.75,25.93,20.35,28.13h-9.18l-15.76-21.75-15.76,21.75h-9.18l20.35-28.13-18.75-25.93ZM54.12,102.43v19.95h-5.39v-4.99c-1.4,1.99-3.19,3.39-5.19,4.39s-4.39,1.4-7.18,1.4-5.19-.4-7.38-1.4c-2.19-1-4.19-2.39-5.79-4.19-1.6-1.8-2.99-3.99-3.79-6.38-.8-2.39-1.2-5.19-1.2-7.98,0-2.99.4-5.79,1.2-8.18.8-2.39,2.19-4.59,3.79-6.38,1.8-1.6,3.59-2.99,5.99-3.79,2.19-1,4.79-1.4,7.58-1.4,4.59,0,8.58,1.2,11.57,3.59s4.79,5.79,5.39,9.78h-5.99c-.6-2.59-1.8-4.59-3.79-5.98-2-1.4-4.39-2.19-7.18-2.19-3.79,0-6.78,1.4-8.98,3.99-2.19,2.59-3.39,6.18-3.39,10.77s1.2,8.18,3.39,10.77c2.19,2.59,5.39,3.99,9.18,3.99,3.19,0,6.18-1,8.38-2.99,2.19-1.99,3.39-4.59,3.59-7.78h-11.17v-4.99h16.36v-.2.2ZM87.23,122.38l-3.59-9.97h-16.96l-3.59,9.97h-5.99l14.96-38.1h6.58l14.56,38.1h-5.98ZM135.91,122.38h-5.59v-30.32c-.8,2.19-1.6,4.79-2.79,7.78l-8.58,22.34h-4.79l-8.78-22.34c-1-2.79-1.99-5.39-2.79-7.78v30.12h-5.59v-37.9h7.98l7.78,20.35c1.6,4.19,2.79,7.58,3.79,10.57,1.2-3.39,2.39-7.18,3.99-11.17l7.58-19.75h7.78v38.1ZM169.03,89.46h-21.55v10.97h18.95v4.79h-18.95v11.77h21.35v5.19h-27.13v-37.9h27.33v5.19ZM172.62,63.53c-2.39-2.59-4.19-5.59-5.39-8.98s-1.8-7.18-1.8-11.37.6-7.98,1.8-11.37,2.99-6.38,5.39-8.98c2.39-2.59,5.19-4.59,8.38-5.79,3.19-1.2,6.78-1.99,10.77-1.99s7.58.6,10.77,1.99c3.19,1.2,5.99,3.19,8.38,5.79,2.39,2.59,4.19,5.59,5.39,8.98,1.2,3.39,1.8,7.38,1.8,11.37,0,4.19-.6,7.98-1.8,11.37-1.2,3.39-2.99,6.38-5.39,8.98-2.39,2.59-5.19,4.59-8.38,5.79-3.19,1.2-6.78,1.99-10.77,1.99s-7.58-.6-10.77-1.99c-3.19-1.2-5.98-3.19-8.38-5.79ZM189.38,108.41v13.96h-5.79v-38.1h16.16c3.99,0,7.38,1,9.58,3.19,2.39,2.19,3.59,5.19,3.39,8.98,0,3.59-1.2,6.58-3.39,8.78-2.19,2.19-5.39,3.19-9.58,3.19h-10.37ZM238.85,122.38l-3.59-9.97h-16.96l-3.59,9.97h-5.98l14.96-38.1h6.58l14.56,38.1h-5.99ZM273.37,120.18c-2.59,1.99-6.38,2.99-10.97,2.99-4.99,0-8.98-1.2-11.77-3.39-2.79-2.19-4.19-5.59-4.19-9.97h5.79c0,2.79,1,4.99,2.59,6.38,1.8,1.4,4.19,2.19,7.58,2.19,2.79,0,4.99-.6,6.38-1.6s2.19-2.59,2.19-4.59c0-1.6-.6-2.99-1.8-3.79-1.2-1-3.59-1.8-6.78-2.39l-3.19-.6c-3.99-.8-6.98-1.99-8.98-3.79-2-1.8-2.99-4.19-2.99-7.38s1.2-5.59,3.59-7.58c2.39-1.8,5.79-2.79,9.78-2.79,4.99,0,8.78,1,11.37,3.19,2.59,2.19,3.79,5.19,3.99,8.78h-5.39c-.2-2.39-1-4.19-2.39-5.39-1.4-1.2-3.79-1.8-6.98-1.8-2.39,0-4.39.4-5.79,1.4-1.2,1-2,2.19-2,3.99s.6,2.99,1.8,3.99c1.2,1,3.39,1.8,6.58,2.39l3.39.6c4.39,1,7.58,2.19,9.38,3.99,1.8,1.4,2.79,3.79,2.79,6.78,0,3.59-1.4,6.38-3.99,8.38ZM307.28,120.18c-2.59,1.99-6.38,2.99-10.97,2.99-4.99,0-8.98-1.2-11.77-3.39-2.79-2.19-4.19-5.59-4.19-9.97h5.79c0,2.79,1,4.99,2.59,6.38,1.8,1.4,4.19,2.19,7.58,2.19,2.79,0,4.99-.6,6.38-1.6s2.19-2.59,2.19-4.59c0-1.6-.6-2.99-1.8-3.79-1.2-1-3.59-1.8-6.78-2.39l-3.19-.6c-3.99-.8-6.98-1.99-8.98-3.79-2-1.8-2.99-4.19-2.99-7.38s1.2-5.59,3.59-7.58c2.39-1.8,5.79-2.79,9.78-2.79,4.99,0,8.78,1,11.37,3.19,2.59,2.19,3.79,5.19,3.99,8.78h-5.39c-.2-2.39-1-4.19-2.39-5.39-1.4-1.2-3.79-1.8-6.98-1.8-2.39,0-4.39.4-5.79,1.4-1.2,1-2,2.19-2,3.99s.6,2.99,1.8,3.99c1.2,1,3.39,1.8,6.58,2.39l3.39.6c4.39,1,7.58,2.19,9.38,3.99,1.8,1.4,2.79,3.79,2.79,6.78,0,3.59-1.4,6.38-3.99,8.38Z"/>
  <path class="cls-1" d="M150.08,37.39c1.6-1.4,2.39-3.39,2.39-6.18,0-2.39-.8-4.19-2.39-5.59s-3.99-1.99-6.98-1.99h-15.56v15.76h15.56c3.19,0,5.39-.8,6.98-1.99Z"/>
</svg>