<?xml version="1.0" encoding="UTF-8"?>
<svg id="_图层_1" data-name="图层 1" xmlns="http://www.w3.org/2000/svg" viewBox="0 0 263.94 248.59">
  <defs>
    <style>
      .cls-1 {
        fill: currentColor;
        stroke-width: 0px;
      }
    </style>
  </defs>
  <path class="cls-1"
    d="M131.97,26.05c-11.21,0-20.48,3.04-28.92,8.16-.14,0-.14.14-.14.28s.14.14.28.14c10.79-2.35,27.12,6.92,28.64,7.89h.28c1.52-.97,17.85-10.24,28.64-7.89.14,0,.28,0,.28-.14s0-.28-.14-.28c-8.44-5.12-17.71-8.16-28.92-8.16Z" />
  <g>
    <path class="cls-1"
      d="M147.19,56.77c11.21,13.28,32.8,44.97,28.64,58.12v.28c.14,0,.28,0,.28-.14,7.06-9.27,11.35-21.03,11.35-33.62,0-15.36-6.23-29.33-16.47-39.44-.14-.14-.14-.14-.28-.14-.21-.07-.72-.23-1.63-.18-2.74.16-9.13,2.29-21.89,14.84l-.14.14s0,.14.14.14Z" />
    <path class="cls-1"
      d="M88.11,115.3c.14,0,.14-.14,0-.28-4.29-13.15,17.43-44.83,28.64-58.12l.14-.14c0-.14,0-.14-.14-.14-12.76-12.66-19.15-14.81-21.95-14.92-.93-.04-1.47.15-1.71.26-.14,0-.14.14-.28.14-10.1,10.1-16.33,24.08-16.33,39.44,0,12.59,4.29,24.35,11.35,33.62,0,.14.14.14.28.14Z" />
    <path class="cls-1"
      d="M132.11,70.75c0-.14-.14-.14-.14-.14,0,0-.14,0-.14.14-16.6,12.59-45.11,43.86-36.39,52.72,9.69,8.58,22.55,13.7,36.53,13.7s26.71-5.12,36.53-13.7c8.58-8.86-19.79-40.13-36.39-52.72Z" />
    <path class="cls-1"
      d="M197.97,187.81c0-5.26-.83-9.96-2.21-14.11-1.38-4.15-3.74-8.03-6.64-11.21-2.91-3.18-6.5-5.67-10.38-7.19-4.01-1.52-8.44-2.35-13.28-2.35s-9.41.83-13.28,2.35c-4.01,1.66-7.47,4.01-10.38,7.19-3.04,3.18-5.26,7.06-6.78,11.21-1.52,4.15-2.21,8.99-2.21,14.11s.69,9.96,2.21,14.11c1.52,4.15,3.74,7.89,6.78,11.07,3.04,3.18,6.5,5.54,10.38,7.2,3.87,1.52,8.44,2.35,13.28,2.35s9.41-.69,13.28-2.35c3.87-1.52,7.33-4.01,10.38-7.2,2.91-3.18,5.12-6.92,6.64-11.07,1.52-4.15,2.21-8.99,2.21-14.11ZM181.51,206.49c-4.01,4.57-9.41,6.92-16.05,6.92s-12.04-2.35-16.05-6.92c-4.01-4.57-6.09-10.79-6.09-18.68s2.08-14.11,6.09-18.82c4.01-4.57,9.41-6.92,16.05-6.92s12.04,2.35,16.05,6.92c4.01,4.57,5.95,10.93,5.95,18.82s-1.94,14.11-5.95,18.68Z" />
    <polygon class="cls-1"
      points="68.46 154.46 57.11 154.46 39.54 178.68 21.96 154.46 10.62 154.46 33.73 186.42 8.54 221.16 19.89 221.16 39.54 194.17 59.05 221.16 70.39 221.16 45.21 186.42 68.46 154.46" />
    <path class="cls-1"
      d="M117.86,186.42c5.81-3.18,8.72-8.16,8.72-14.53,0-5.12-1.8-9.41-5.4-12.59-3.6-3.18-8.72-4.84-15.5-4.84h-29.89v28.37h-8.72l-6.23,8.58h14.94v29.75h31.13c7.2,0,12.73-1.8,16.6-5.12,3.87-3.32,5.81-8.03,5.81-13.84,0-3.6-.97-6.92-3.05-9.55-1.94-2.63-4.7-4.84-8.44-6.23ZM85.89,163.18h19.09c3.74,0,6.64.83,8.58,2.49,2.08,1.66,3.04,4.01,3.04,6.92,0,3.46-.97,6.09-2.91,7.75-1.94,1.8-4.84,2.63-8.72,2.63h-19.09v-19.79ZM115.78,209.67c-2.21,1.66-5.4,2.63-9.41,2.63h-20.48v-20.89h20.62c4.15,0,7.33.83,9.41,2.63,2.08,1.66,3.18,4.43,3.18,7.89s-1.11,5.95-3.32,7.75Z" />
    <polygon class="cls-1"
      points="230.07 186.42 253.32 154.46 241.97 154.46 224.4 178.68 206.83 154.46 195.48 154.46 218.73 186.42 193.54 221.16 204.89 221.16 224.4 194.17 244.05 221.16 255.39 221.16 230.07 186.42" />
  </g>
</svg>